<svg xmlns="http://www.w3.org/2000/svg" version="1.1" xmlns:xlink="http://www.w3.org/1999/xlink" xmlns:svgjs="http://svgjs.dev/svgjs" viewBox="0 0 6.013424099550948 4.735646432836852"><g transform="matrix(0.8409355559585743,0,0,0.8409355559585743,3.007268137286547,4.140048882563129)"><g transform="matrix(1,0,0,1,0,0)"><path d=" M -2.0508517021699113 -1.5677052656095312 Q -2.004590387008969 -1.5711138424344862 -1.9679043285149793 -1.5549671180777804 Q -1.9312182700209894 -1.5388203937210747 -1.9029592401699884 -1.510791846118308 Q -1.8747002103189871 -1.4827632985155415 -1.8541633848569252 -1.4465768962704713 Q -1.833626559394863 -1.410390494025401 -1.8201506715099973 -1.3736838353175747 Q -1.8066747836251316 -1.3369771766097482 -1.7995370691853865 -1.303230749436813 Q -1.7923993547456414 -1.2694843222638776 -1.79071300621119 -1.246597145289517 L -1.7808819530528992 -1.1131697731411165 Q -1.781907110605902 -1.120438311568371 -1.7862333573762914 -1.125994808066599 Q -1.7905596041466807 -1.1315513045648269 -1.797456498316126 -1.135449578768107 Q -1.8043533924855715 -1.1393478529713867 -1.8126214709015478 -1.141921084875959 Q -1.820889549317524 -1.1444943167805313 -1.8298342499177527 -1.1462832872326947 Q -1.849707375723144 -1.1502046703250333 -1.8755880794829316 -1.1492769656787098 Q -1.9073481975454167 -1.148405665171981 -1.9786239333098616 -1.1456020268494684 Q -2.008887287979633 -1.1443514043986756 -2.0508735914987475 -1.1427266290148514 Q -2.092859895017862 -1.1411018536310273 -2.1484990523571748 -1.138715925683853 Q -2.204138209696487 -1.1363299977366788 -2.2749269842487116 -1.1335622391702183 Q -2.3457157588009365 -1.1307944806037578 -2.4335840555369286 -1.1272578917876923 Q -2.4312825821385577 -1.1093120864476402 -2.42909133251386 -1.0862173086232216 Q -2.426900082889162 -1.0631225307988028 -2.4257570997065256 -1.0343200597656925 L -2.483597541371425 -1.1216144320654384 Q -2.483356569440537 -1.1382787525490898 -2.483746077746078 -1.156855038125571 Q -2.484135586051619 -1.175431323702052 -2.485463137025549 -1.1934488885542083 Q -2.4867906879994788 -1.2114664534063644 -2.48821820055531 -1.2275182335316128 Q -2.4896457131111416 -1.2435700136568613 -2.4915166294368865 -1.255672284450268 Q -2.49353106478684 -1.2697224000925564 -2.4954019811125843 -1.281824670885963 Q -2.498021203304392 -1.3173728393780553 -2.4948865903396844 -1.3545689679733244 Q -2.4917519773749772 -1.3917650965685935 -2.478114403096994 -1.4226358225857354 Q -2.4644768288190115 -1.4535065486028773 -2.43763238899626 -1.4745790617304995 Q -2.4107879491735087 -1.4956515748581216 -2.365987517649228 -1.4989525124149201 Q -2.3317208340135367 -1.4990292892774688 -2.300309327150096 -1.4846971529372075 Q -2.2866231780793616 -1.4783614881673093 -2.2724423901101525 -1.4686350347898938 Q -2.2582616021409425 -1.4589085814124785 -2.244921479763737 -1.4439793359166182 Q -2.2315813573865304 -1.4290500904207577 -2.2197764626636065 -1.4083772719601535 Q -2.2079715679406826 -1.3877044534995495 -2.199073085118571 -1.3599630197754942 Q -2.2006569633958986 -1.3681696008711373 -2.2017000608269277 -1.375681619904502 Q -2.2027431582579564 -1.3831936389378667 -2.203317234354791 -1.3909850183333936 Q -2.2055776589860767 -1.4216635747032815 -2.20025688957741 -1.445801449958729 Q -2.194936120168743 -1.4699393252141766 -2.1845227824153044 -1.488087562393254 Q -2.174109444661865 -1.5062357995723312 -2.1601361817124194 -1.5192606818313228 Q -2.146162918762974 -1.5322855640903144 -2.131641197280975 -1.5411892159234584 Q -2.0964466573383715 -1.5618977624795263 -2.0508517021699113 -1.5677052656095312 M -1.910218426369001 -1.233875035602923 Q -1.8940051873415178 -1.2331112227037624 -1.8790016736583308 -1.2288310420509023 Q -1.86601776433613 -1.2253812647982745 -1.8532875978118106 -1.2187303599101615 Q -1.8405574312874913 -1.2120794550220486 -1.8343038640517624 -1.2003001020331112 Q -1.833509188746994 -1.2493191410596247 -1.8343522871839257 -1.2840189662734585 Q -1.8351953856208572 -1.3187187914872922 -1.8368099746432043 -1.340632046037212 Q -1.837635209032404 -1.351832153918282 -1.838506585369427 -1.3603360352541136 Q -1.8393779617064498 -1.3688399165899454 -1.840259600235244 -1.3741606101683181 Q -1.8412129982761425 -1.3804552261711316 -1.8419869975367802 -1.384315036112843 Q -1.8450471148232788 -1.3992673146674681 -1.8575030141661744 -1.4154857227059838 Q -1.86995891350907 -1.4317041307444995 -1.8898191926171737 -1.4454185577153251 Q -1.9096794717252774 -1.459132984686151 -1.9353217880596933 -1.4682597444024508 Q -1.9609641043941093 -1.4773865041187506 -1.9914068578441417 -1.47857068772906 Q -2.0321475562629074 -1.479975318886715 -2.063659100538544 -1.4690854337734152 Q -2.0951706448141802 -1.458195548660115 -2.1159921513100257 -1.4351187865440165 Q -2.1368136578058707 -1.412042024427918 -2.1462146847035948 -1.3768322049430992 Q -2.1556157116013184 -1.3416223854582803 -2.152135375264259 -1.2943871478728977 Q -2.1515254194113727 -1.28610880726515 -2.1503567428341612 -1.2768924239890138 Q -2.14918806625695 -1.2676760407128778 -2.147532428467518 -1.2584955371927937 Q -2.1649604101897415 -1.2890357435495055 -2.180712229738991 -1.316761821901051 Q -2.196464049288241 -1.3444879002525965 -2.217295666315269 -1.364740423832346 Q -2.2381272833422976 -1.3849929474120954 -2.267303907308439 -1.3955729130788017 Q -2.2964805312745806 -1.406152878745508 -2.340794001586641 -1.402887820944762 Q -2.3661159846221036 -1.4010220736300498 -2.3839746750775417 -1.3908933410800999 Q -2.4018333655329793 -1.38076460853015 -2.4134179643691462 -1.3652228985061807 Q -2.4250025632053127 -1.3496811884822115 -2.4314125719928317 -1.33035910571489 Q -2.4378225807803506 -1.3110370229475685 -2.4407162218141703 -1.290505214835951 Q -2.44360986284799 -1.2699734067243333 -2.443599676486513 -1.2499003577551389 Q -2.4435894901250355 -1.2298273087859444 -2.4428206598754305 -1.2127477866021767 Q -2.3535632390148815 -1.2173659371108396 -2.2833152453089554 -1.2208282577395786 Q -2.2130672516030296 -1.2242905783683176 -2.1588889779003786 -1.2265688670473354 Q -2.104710704197727 -1.2288471557263532 -2.065420627223851 -1.2305180730580005 Q -2.0261305502499756 -1.2321889903896481 -1.9982661218852538 -1.2327732528479598 Q -1.9332850021236223 -1.2346234931295739 -1.910218426369001 -1.233875035602923 M -1.814739663531454 -1.9242671791161414 Q -1.801860346103793 -1.8953130388634363 -1.7922292095304406 -1.8763268615973958 Q -1.7825980729570883 -1.8573406843313556 -1.7770038718319492 -1.8422652121063425 Q -1.7714096707068099 -1.8271897398813297 -1.7697417017024801 -1.813776831336306 Q -1.7680737326981502 -1.8003639227912824 -1.7710383985785236 -1.7830376065430613 Q -1.7749912864190214 -1.7599358515454329 -1.7797163948891763 -1.7439015157421545 Q -1.7844415033593313 -1.7278671799388758 -1.787241465579684 -1.7115034368155557 Q -1.7886414466898601 -1.7033215652538958 -1.7893606738713659 -1.6947755226659948 Q -1.7900799010528714 -1.686229480078094 -1.7894028566708362 -1.6757107031165797 Q -1.79864788292936 -1.691163170785445 -1.810229814587738 -1.7045386129620992 Q -1.821811746246116 -1.717914055138753 -1.840185690111419 -1.729231708449613 Q -1.858559633976722 -1.740549361760473 -1.8854924448475376 -1.7496161710481246 Q -1.9124252557183532 -1.7586829803357762 -1.951409467276851 -1.7653534785666163 L -2.4375088953519466 -1.8485288268770912 Q -2.4386179423949166 -1.8333618879510918 -2.4398349901031198 -1.811773520053214 Q -2.441052037811323 -1.790185152155336 -2.441813447792299 -1.7625742900180201 Q -2.4585430577195653 -1.7921872449108083 -2.466030344050478 -1.8150173024676475 Q -2.47351763038139 -1.8378473600244867 -2.476258875838025 -1.853673113590569 Q -2.4790696487070587 -1.8719876517989147 -2.4777263705916694 -1.885628379207552 Q -2.474362769978856 -1.9023910570633122 -2.4718253903283163 -1.923010439627483 Q -2.4692880106777766 -1.943629822191654 -2.4677196163609443 -1.9629288728134884 Q -2.4661512220441115 -1.982227923435323 -2.4660806877472474 -1.9985633150612496 Q -2.4660101534503838 -2.014898706687176 -2.467580243544921 -2.0230934026664475 Q -2.4565308961194403 -1.9979200275009485 -2.4492714286521418 -1.9781012170638284 Q -2.4420119611848428 -1.9582824066267084 -2.4380739115308874 -1.940765737883243 Q -2.3513728028773824 -1.923453623839113 -2.282837055851984 -1.9099928091790528 Q -2.2143013088265864 -1.8965319945189927 -2.161325023250822 -1.8862289008967201 Q -2.108348737675058 -1.8759258072744478 -2.069728697142801 -1.8685745551149369 Q -2.031108656610544 -1.8612233029554262 -2.0037576743808705 -1.8560479620823844 Q -1.9399936170649732 -1.8436513090036533 -1.916328223674884 -1.8400973558955958 Q -1.8986029726942226 -1.8365690516227615 -1.8820178229160947 -1.8292728066803328 Q -1.8672754675577588 -1.8227872556203961 -1.8515074238709288 -1.8121631806558185 Q -1.8357393801840987 -1.8015391056912409 -1.8242526247733428 -1.7847123057474226 Q -1.8217253668782445 -1.793692046773963 -1.820243033938058 -1.8023552048980735 Q -1.8187607009978712 -1.811018363022184 -1.8173607198876949 -1.8192002345838443 Q -1.813160776557166 -1.8437458492688243 -1.8120736688027839 -1.8631272517206692 Q -1.810986561048402 -1.8825086541725142 -1.8116507810128255 -1.8959975023387425 Q -1.8123845283896478 -1.9119751351472338 -1.814739663531454 -1.9242671791161414 M -1.7892325283877528 -2.7653526332687326 Q -1.7339045010814043 -2.7373479433629857 -1.6961152886952289 -2.6952354736252904 Q -1.6583260763090535 -2.6531230038875946 -1.6347680383030025 -2.6034375606927167 Q -1.6112100002969514 -2.5537521174978384 -1.600882797038477 -2.500091868087165 Q -1.5905555937800024 -2.4464316186764914 -1.5906948106818637 -2.395879960357952 Q -1.590834027583725 -2.345328302039413 -1.6000036712550565 -2.301262892685059 Q -1.6091733149263883 -2.2571974833307054 -1.6248294801492862 -2.2262660664901484 Q -1.6380600423094815 -2.2001268409910857 -1.6608937645839106 -2.1750174625165264 Q -1.6837274868583398 -2.149908084041967 -1.7140722127284826 -2.129421354852943 Q -1.7444169385986257 -2.108934625663919 -1.781390630587136 -2.094813160793701 Q -1.8183643225756463 -2.0806916959234827 -1.8595467426001773 -2.076635869827593 Q -1.900729162624708 -2.072580043731704 -1.9452382732079128 -2.080332471443414 Q -1.9897473837911177 -2.088084899155124 -2.035491028414477 -2.111238382935466 Q -2.0964825545789556 -2.142109694642589 -2.1384185251396826 -2.184679278060024 Q -2.180354495700409 -2.2272488614774586 -2.206429614022587 -2.2757456455525853 Q -2.2325047323447644 -2.324242429627712 -2.2443728186984173 -2.3753990111731476 Q -2.25624090505207 -2.426555592718583 -2.256989090607911 -2.4742728191178793 Q -2.2577372761637515 -2.5219900455171755 -2.2490166987016265 -2.5635464220259365 Q -2.240296121239501 -2.6051027985346966 -2.2255219934939494 -2.634291600341983 Q -2.2098658282710515 -2.66522301718254 -2.1867928191960417 -2.694589408516319 Q -2.163719810121032 -2.7239557998500983 -2.1335768161889814 -2.7478282343817066 Q -2.103433822256931 -2.771700668913315 -2.066559654992378 -2.7877879406763184 Q -2.029685487727825 -2.803875212439322 -1.9864270061258404 -2.8082483901383273 Q -1.9431685245238564 -2.8126215678373327 -1.89364671322982 -2.802879190821238 Q -1.8441249019357837 -2.793136813805143 -1.7892325283877528 -2.7653526332687326 M -1.8027903543496324 -2.672612577725378 Q -1.85071226776458 -2.696868608352403 -1.8956570321061026 -2.7048415454334496 Q -1.9406017964476252 -2.7128144825144966 -1.9809129089555204 -2.708317637679934 Q -2.021224021463416 -2.7038207928453715 -2.0563448437339873 -2.6890351173769655 Q -2.0914656660045585 -2.67424944190856 -2.120065094351253 -2.653426583685176 Q -2.1486645226979473 -2.632603725461791 -2.1699707743280863 -2.6072684726375397 Q -2.191277025958226 -2.5819332198132883 -2.204287078749085 -2.5562296480725437 Q -2.225014959466724 -2.5152781947906795 -2.2289540755480655 -2.4691125814472725 Q -2.2328931916294072 -2.4229469681038656 -2.215106224675977 -2.37645622827419 Q -2.1973192577225467 -2.3299654884445147 -2.15451734462554 -2.2858630694024344 Q -2.111715431528533 -2.241760650360354 -2.039396907647794 -2.20515609505048 Q -1.9910393404745286 -2.1806795550541187 -1.9454276830446409 -2.175105396133997 Q -1.899816025614753 -2.1695312372138753 -1.859160736601964 -2.177411104900844 Q -1.818505447589175 -2.1852909725878136 -1.7831507034983785 -2.203241844029467 Q -1.747795959407582 -2.2211927154711204 -1.7198419642278309 -2.2439840630774675 Q -1.69188796904808 -2.266775410683815 -1.6717864714787585 -2.291352293166277 Q -1.6516849739094372 -2.3159291756487392 -1.6413210335506174 -2.3364049022896713 Q -1.6309570931917976 -2.3568806289306035 -1.6254795039180745 -2.3828395824129953 Q -1.6200019146443514 -2.408798535895387 -1.6218228670675388 -2.438178067092674 Q -1.6236438194907261 -2.4675575982899605 -1.634191259531156 -2.4986177746590488 Q -1.6447386995715862 -2.5296779510281375 -1.6659891640827553 -2.5601356140731264 Q -1.6872396285939244 -2.5905932771181153 -1.7208362078851456 -2.619364657423566 Q -1.7544327871763672 -2.6481360377290164 -1.8027903543496324 -2.672612577725378 M -1.2108688214521202 -3.0867117834770745 Q -1.193920858992457 -3.068466419882204 -1.1877817810671414 -3.0381814709549126 Q -1.181642703141826 -3.007896522027621 -1.1840006413401116 -2.97205128961325 Q -1.1863585795383973 -2.936206057198879 -1.1951950181339666 -2.898008393172668 Q -1.2040314567295356 -2.8598107291464574 -1.2167149339412093 -2.8250371505180203 Q -1.229398411152883 -2.790263571889583 -1.2447666329658018 -2.7623262458857805 Q -1.2601348547787208 -2.7343889198819773 -1.2751858875653825 -2.719741709110205 Q -1.2891891029079385 -2.705401372089893 -1.3089942744980534 -2.693002431634004 Q -1.3287994460881685 -2.680603491178115 -1.34849014110753 -2.6713098441976264 Q -1.3681808361268915 -2.6620161972171372 -1.3853163870789096 -2.656428871595996 Q -1.402451938030928 -2.650841545974854 -1.4107327206319946 -2.6511468168301966 Q -1.4158954901386887 -2.6516826437231638 -1.4206623485611143 -2.6535858814306694 Q -1.4254292069835401 -2.655489119138175 -1.4292508063616995 -2.6596032697527043 Q -1.433072405739859 -2.663717420367234 -1.4349009286296457 -2.6703493576402475 Q -1.4367294515194327 -2.676981294913261 -1.4356832369714438 -2.6866167687098934 Q -1.434330148671995 -2.6952044250624203 -1.4324666727175244 -2.7082647857048854 Q -1.4306795144768896 -2.7192549506970836 -1.4281394943726944 -2.736609139515812 Q -1.4255994742684994 -2.75396332833454 -1.4215656486080983 -2.7790362321753643 Q -1.4219472371772768 -2.768685253924031 -1.4190581772244113 -2.7627052230108555 Q -1.4161691172715458 -2.7567251920976794 -1.4121559221607387 -2.7531222305862304 Q -1.4078104140605265 -2.7491615168474306 -1.4019830185750222 -2.747910185499763 Q -1.3940854274392511 -2.7465825364382592 -1.3798246139250085 -2.749166325535782 Q -1.3655638004107662 -2.7517501146333045 -1.3483773709828575 -2.7587175706879576 Q -1.3311909415549488 -2.7656850267426103 -1.3122801505332098 -2.7772531847249864 Q -1.2933693595114708 -2.7888213427073625 -1.2761972525986518 -2.8047723661988098 Q -1.2550898711849783 -2.8243788325737142 -1.2381618413768147 -2.847767136573743 Q -1.2212338115686512 -2.871155440573772 -1.213570783710797 -2.896267304719572 Q -1.205907755852943 -2.921379168865373 -1.2104997454019861 -2.9467700631805127 Q -1.2150917349510295 -2.9721609574956522 -1.23702439225177 -2.9957726045007784 Q -1.2572954846054847 -3.0175954903691524 -1.2829439770923108 -3.0247600487428987 Q -1.3085924695791369 -3.031924607116645 -1.3373446526452462 -3.0298750420159726 Q -1.3660968357113552 -3.0278254769153 -1.397518639415561 -3.0189642969798802 Q -1.428940443119767 -3.0101031170444603 -1.460911594783971 -3.000398435016555 Q -1.492882746448175 -2.9906937529886495 -1.5244707066470835 -2.9820114491669045 Q -1.5560586668459921 -2.97332914534516 -1.585309319396209 -2.971816208585513 Q -1.6145599719464259 -2.9703032718258657 -1.6408730904120623 -2.978183334654313 Q -1.6671862088776987 -2.98606339748276 -1.688454240199629 -3.0089595400331857 Q -1.7090576455427486 -3.03114017812891 -1.7179188254781685 -3.062561981833116 Q -1.7267800054135884 -3.093983785537322 -1.7263388259898396 -3.1293814269434757 Q -1.7258976465660907 -3.1647790683496293 -1.7177767124252221 -3.20231210639703 Q -1.7096557782843538 -3.2398451444444305 -1.6961287989801945 -3.274069375112869 Q -1.6826018196760353 -3.3082936057813077 -1.6653168390885797 -3.3366785227933278 Q -1.6480318585011244 -3.3650634398053483 -1.6294033034409585 -3.3830337804711723 Q -1.6114902528354935 -3.4003394951581853 -1.5928481767082965 -3.413990568409801 Q -1.5742061005810997 -3.427641641661416 -1.5591025864224302 -3.434340382821527 Q -1.5439990722637607 -3.4410391239816374 -1.5342228812103709 -3.439123968103218 Q -1.524446690156981 -3.4372088122247986 -1.5239076574717798 -3.423714381641147 Q -1.523624620062148 -3.412647898935113 -1.5251812222651586 -3.398539720848542 Q -1.526686945992279 -3.385811673195482 -1.5300831878079322 -3.368661799728374 Q -1.5334794296235852 -3.3515119262612663 -1.540529511426578 -3.32896872724984 Q -1.5416552494806366 -3.335920257893286 -1.5444544706526355 -3.33965121704252 Q -1.547253691824634 -3.3433821761917537 -1.5499630742157657 -3.344864063577046 Q -1.553362521823653 -3.346371390200283 -1.5568128479074308 -3.3464985863900094 Q -1.5613109914353145 -3.346318908828276 -1.5698978463397826 -3.343007697105138 Q -1.5784847012442507 -3.339696485382001 -1.590112450081197 -3.3335606132489195 Q -1.6017401989181435 -3.3274247411158377 -1.6150414308730296 -3.3180682974885447 Q -1.628342662827916 -3.308711853861251 -1.6415794952398806 -3.2964162732532603 Q -1.6630446288809044 -3.276477493888951 -1.6780813391524765 -3.2528467156803837 Q -1.6931180494240485 -3.2292159374718166 -1.6983531294042857 -3.2043600686015856 Q -1.7035882093845227 -3.1795041997313542 -1.6974244936693206 -3.154573616043405 Q -1.6912607779541182 -3.129643032355455 -1.6706573726109986 -3.10746239425973 Q -1.6480600893314477 -3.0831352427999033 -1.6209161883922985 -3.07436079940308 Q -1.5937722874531488 -3.065586356006257 -1.5640104457998518 -3.0669076970332565 Q -1.5342486041465546 -3.0682290380602555 -1.502328330958241 -3.07655358965465 Q -1.4704080577699274 -3.0848781412490442 -1.4386030626004258 -3.0947616993906246 Q -1.4067980674309242 -3.1046452575322054 -1.3752101072320158 -3.11332756135395 Q -1.3436221470331073 -3.122009865175695 -1.3143587748639178 -3.1238678345437196 Q -1.2850954026947283 -3.1257258039117444 -1.2587822842290919 -3.1178457410832974 Q -1.2324691657634554 -3.10996567825485 -1.2108688214521202 -3.0867117834770745 M -0.7368930601459347 -3.8525569665933426 Q -0.7402292513534583 -3.8386918709860103 -0.747322099593563 -3.8236500274952454 Q -0.753245807630456 -3.8107514468588164 -0.7634289319405905 -3.794836793333082 Q -0.7736120562507249 -3.7789221398073476 -0.7892703482279504 -3.762656937242513 Q -0.7866980467590217 -3.7734902620454425 -0.7959607847342329 -3.7802672783620963 Q -0.8052235227094442 -3.78704429467875 -0.8259940566850139 -3.7866942281943077 Q -0.8467645906605838 -3.786344161709865 -0.8785363575557414 -3.7777563774867406 Q -0.910308124450899 -3.7691685932636165 -0.9529565060541714 -3.749716570962024 Q -0.9778347286560802 -3.738369557952762 -1.004158919874234 -3.7201913097559873 Q -1.0304831110923875 -3.702013061559213 -1.052797605014904 -3.6768085606228382 Q -1.0751120989374203 -3.6516040596864636 -1.0916788831745805 -3.6190926737573452 Q -1.1082456674117407 -3.5865812878282273 -1.1141546426428508 -3.546587501109487 Q -1.120063617873961 -3.506593714390746 -1.1124856385269255 -3.458797891118822 Q -1.1049076591798905 -3.4110020678468977 -1.0795795051413584 -3.355470320967637 Q -1.0542513511028262 -3.299938574088376 -1.0214522077950021 -3.2639145160455394 Q -0.9886530644871782 -3.227890458002703 -0.9523384103348411 -3.207691634944435 Q -0.9160237561825042 -3.187492811886167 -0.8779277997352628 -3.180449896122153 Q -0.8398318432880214 -3.173406980358138 -0.8040503790972264 -3.174968511841662 Q -0.7682689149064315 -3.1765300433251866 -0.7369414019863079 -3.1849152023160023 Q -0.7056138890661844 -3.193300361306818 -0.6820684283893778 -3.2040394986191556 Q -0.6551715611446066 -3.2168438917649933 -0.6274718006508229 -3.2337711888976113 Q -0.6035677007000377 -3.2484306049644203 -0.5758717440463642 -3.268307862040496 Q -0.5481757873926907 -3.288185119116572 -0.5241232810804556 -3.313108987799803 Q -0.5514111485387181 -3.2588025302132433 -0.5799765939419088 -3.2237702229552605 Q -0.6085420393450995 -3.1887379156972777 -0.6324775351260818 -3.1670874465611756 Q -0.6602476949604803 -3.142077963176889 -0.686739311740635 -3.128385062080983 Q -0.7524889000456798 -3.0983965276993612 -0.8195003683805544 -3.0911776701809623 Q -0.886511836715429 -3.0839588126625634 -0.9469874349217179 -3.1006511802205123 Q -1.0074630331280066 -3.1173435477784612 -1.0571005375819404 -3.159104386540981 Q -1.1067380420358741 -3.200865225303501 -1.1377397025790374 -3.2688360834837162 Q -1.1569890996483219 -3.311040211111955 -1.1655064845308312 -3.3508941642587815 Q -1.1740238694133405 -3.390748117405608 -1.1746968929467965 -3.42693483206102 Q -1.1753699164802522 -3.463121546716431 -1.1699755945647912 -3.4948305219511946 Q -1.1645812726493299 -3.526539497185958 -1.1558864417513102 -3.55277710859374 Q -1.1471916108532905 -3.5790147200015228 -1.1366498472691775 -3.5988496522817286 Q -1.1261080836850643 -3.6186845845619344 -1.1171526048437679 -3.6308192754597686 Q -1.1086413799775054 -3.6427513411252948 -1.094498973402482 -3.6593984885594266 Q -1.0803565668274582 -3.6760456359935585 -1.062761441068316 -3.6945359122736736 Q -1.0451663153091737 -3.7130261885537887 -1.02502648007119 -3.7324087766240823 Q -1.004886644833206 -3.751791364694376 -0.9830478007159209 -3.76980218732915 Q -0.9612089565986359 -3.7878130099639233 -0.9392649960250865 -3.802651745667722 Q -0.9173210354515372 -3.8174904813715207 -0.895996844649901 -3.8272164925223167 Q -0.8484616693212537 -3.8488973923793 -0.8171146546459214 -3.8578281179613043 Q -0.7857676399705891 -3.8667588435433085 -0.7675028119634433 -3.867307731419949 Q -0.7492379839562975 -3.8678566192965897 -0.7424224466838839 -3.8629151241456983 Q -0.7356069094114703 -3.8579736289948072 -0.7368930601459347 -3.8525569665933426 M -0.16098032004762958 -3.33382975446762 Q -0.18420484957218553 -3.3122695994695963 -0.19905002006522432 -3.297010024380339 Q -0.21389519055826317 -3.281750449291082 -0.2263473611187121 -3.2715765416165876 Q -0.23879953167916104 -3.2614026339420934 -0.2509499037498353 -3.255481764514319 Q -0.26310027582050954 -3.249560895086545 -0.28045318329277347 -3.246756063402705 Q -0.303590393255792 -3.243016287824252 -0.3202908982778013 -3.2422953809530988 Q -0.33699140329981053 -3.241574474081946 -0.35338026035694864 -3.238925466380542 Q -0.3615746888855177 -3.2376009625298394 -0.36989326203104156 -3.235514464872184 Q -0.3782118351765654 -3.2334279672145287 -0.38794480457929714 -3.2293816893611407 Q -0.37631798655676296 -3.2431318300967478 -0.3674129425369143 -3.2584205117065177 Q -0.35850789851706566 -3.273709193316287 -0.3537488742322069 -3.2947577746814587 Q -0.3489898499473481 -3.3158063560466307 -0.3491315625743043 -3.3442240134024566 Q -0.34927327520126045 -3.3726416707582825 -0.3555841464899004 -3.4116857125708764 L -0.43427525761985475 -3.8985311722093914 Q -0.4489843030806509 -3.8946698248589517 -0.469803852257329 -3.8888315712075547 Q -0.4906234014340071 -3.882993317556158 -0.5169935171277865 -3.87477404438746 Q -0.4943922835329728 -3.900190401045987 -0.4752161628019962 -3.9146661524379063 Q -0.45604004207101945 -3.929141903829826 -0.44195429253996554 -3.936859452840769 Q -0.42553632896231497 -3.9454485870153633 -0.41219544713298967 -3.948594173184587 Q -0.3952466528770709 -3.950839067669646 -0.3749164055380838 -3.955114377711528 Q -0.35458615819909667 -3.9593896877534087 -0.3358188544696249 -3.9641542996329813 Q -0.31705155074015307 -3.9689189115125534 -0.3015732348422756 -3.974141145864336 Q -0.2860949189443981 -3.9793633802161184 -0.2788499875706986 -3.98350212332098 Q -0.2990899005984032 -3.9648974782992954 -0.3154907380708292 -3.9516122366660267 Q -0.33189157554325527 -3.938326995032758 -0.3471896647233445 -3.928929634425473 Q -0.3354977203507414 -3.841293511900502 -0.32604339383306946 -3.772091215249747 Q -0.3165890673153975 -3.7028889185989917 -0.3091848553047404 -3.6494303531852483 Q -0.3017806432940833 -3.595971787771505 -0.29623176581239663 -3.557051890575866 Q -0.29068288833070993 -3.5181319933802273 -0.28672393003885954 -3.4905786445579245 Q -0.2778077108295839 -3.4262355559784075 -0.27350799805234993 -3.402694232799044 Q -0.2711072795848551 -3.3847813881279993 -0.27264067476908116 -3.3667272727347752 Q -0.27400369271061537 -3.350679170163021 -0.27895022034339045 -3.332320683435054 Q -0.2838967479761656 -3.313962196707087 -0.2960980564577367 -3.2976461059512303 Q -0.2867837535316063 -3.298162383369242 -0.2781072997954743 -3.299564799211162 Q -0.26943084605934237 -3.300967215053082 -0.2612364175307733 -3.3022917189037844 Q -0.2366531319450661 -3.306265230455891 -0.21796374020681208 -3.311511867543026 Q -0.19927434846855807 -3.3167585046301613 -0.18672713981166683 -3.3217542796384185 Q -0.17184771710817892 -3.3276216398103275 -0.16098032004762958 -3.33382975446762 M 0.3226398063633812 -3.6384350988523773 Q 0.3181216034679679 -3.6367881487108336 0.30898467416246844 -3.632032857913574 Q 0.3008555130379746 -3.6276976816112567 0.2858317701365757 -3.6191871244967566 Q 0.27080802723517683 -3.610676567382256 0.24628651250879796 -3.5957225177897416 Q 0.25068617145328814 -3.602761407654807 0.24681362770226217 -3.606943265650839 Q 0.24294108395123615 -3.611125123646871 0.23622178506643987 -3.6130556238961833 Q 0.22807460350569597 -3.6155737778315595 0.21683710172548643 -3.6158573279393287 Q 0.19919989204074967 -3.6156022196012323 0.16618457411898274 -3.615915477995812 Q 0.1331692561972158 -3.6162287363903913 0.0916626681143366 -3.617615512125287 Q 0.08630141399844424 -3.5396746847027813 0.08195961591411802 -3.4907851181544687 Q 0.07761781782979182 -3.4418955516061556 0.07525424871783884 -3.414649769846503 Q 0.07206847105225192 -3.382566194211168 0.07005546772451646 -3.367532174574506 Q 0.06841105061724859 -3.3578565868231416 0.06290309997707977 -3.348936191948962 Q 0.05843642535614088 -3.3409230417411155 0.049274998430542116 -3.332253955653619 Q 0.040113571504943324 -3.323584869566122 0.024509918618467935 -3.317316659980216 L 0.24517988625843734 -3.302137609264596 Q 0.2607680517429385 -3.301065358441418 0.2769773787517277 -3.3019081204655776 Q 0.29071754706533914 -3.3024312915094685 0.3065402674174106 -3.3047689518860244 Q 0.322362987769482 -3.3071066122625807 0.33695887247495176 -3.312954707353544 Q 0.3110274955088754 -3.2917349812093994 0.2863204211551248 -3.281198610997625 Q 0.2616133468013742 -3.2706622407858505 0.2412724235538895 -3.266677630267751 Q 0.2174545734302215 -3.26195331427444 0.1964409603839744 -3.2624198909753046 Q 0.14870220358768965 -3.265703659121289 0.10628837083847781 -3.2681317108754144 Q 0.06387453808926599 -3.2705597626295404 0.029674902577246726 -3.2714439207910715 Q -0.004524732934772541 -3.272328078952602 -0.02878846169061973 -3.2717946311734485 Q -0.05305219044646693 -3.271261183394295 -0.06397010124640742 -3.269075574806886 Q -0.04783032294834279 -3.2831378671350424 -0.0383003098022764 -3.2971653851078364 Q -0.028770296656210018 -3.3111929030806304 -0.023146335099393955 -3.328915148878066 Q -0.017522373542577907 -3.3466373946755015 -0.01474643363667004 -3.369205178049606 Q -0.011970493730762158 -3.3917729614237113 -0.010313122255795878 -3.422982800230938 L 0.0034250914161783053 -3.622706170501109 Q -0.010701683554150868 -3.6236778978096145 -0.02406425542916972 -3.6250864935321743 Q -0.03742682730418857 -3.6264950892547336 -0.050025196083897105 -3.6283405533913475 L 0.005469069547862249 -3.6524211109559395 Q 0.0072784928119759285 -3.678726140211035 0.009028644100628092 -3.7077271393278917 Q 0.010778795389280227 -3.736728138444748 0.01305732838853449 -3.769852990099313 Q 0.015335861387788752 -3.802977841753878 0.017722661602703083 -3.841234314127157 Q 0.02010946181761744 -3.879490786500436 0.02322569077247988 -3.9247938924397676 Q 0.0013048330599001456 -3.9263017451598623 -0.01814686595750198 -3.928129188860226 Q -0.0375985649749041 -3.9299566325605895 -0.05409397512573791 -3.932070159402998 L 0.03982951273713345 -3.9740635884609485 Q 0.13238424530135906 -3.9676970991983267 0.1979870229489638 -3.9644081203856314 Q 0.2635898005965685 -3.9611191415729357 0.30655777919361965 -3.959631842323367 Q 0.3563790880283644 -3.958162563510048 0.38963797103582665 -3.957832551196357 Q 0.40620039686310916 -3.9566932846967298 0.4113745356381726 -3.9536454825336134 Q 0.41654867441323606 -3.950597680370497 0.4153566131219967 -3.947498349932906 Q 0.4141645518307572 -3.944399019495316 0.4090586952492803 -3.9413241866778246 Q 0.4039528386678034 -3.938249353860333 0.3999552737820051 -3.937056026051956 Q 0.39592420105798254 -3.9353755680721876 0.3847717353904717 -3.9297800482850445 Q 0.37514767591358156 -3.925058265326009 0.35755425080233205 -3.914766726717068 Q 0.33996082569108255 -3.904475188108127 0.3093927018786698 -3.88700045154596 Q 0.3198724777474182 -3.897047158552068 0.3187629195346017 -3.902262548866343 Q 0.3176533613217851 -3.907477939180618 0.3124624686276095 -3.910282176258039 Q 0.30629731559065254 -3.913153429011908 0.2950933216486673 -3.9139241092910675 Q 0.2857708327157961 -3.9135864978745487 0.2672096244456145 -3.914129100469987 Q 0.24864841617543293 -3.9146717030654257 0.22398132684375582 -3.915389588552973 Q 0.19931423751207883 -3.91610747404052 0.17050654172358115 -3.917110176152974 Q 0.14169884593508353 -3.918112878265428 0.11146326747063817 -3.9197032340639457 Q 0.10658914352613649 -3.8417288988032157 0.10257721315734225 -3.7798466131174893 Q 0.09856528278854804 -3.7179643274317633 0.09501345193676933 -3.6663285292643533 Q 0.1447342372568411 -3.6633978599368624 0.18451911582074076 -3.6618847965500563 Q 0.2243039943846405 -3.6603717331632506 0.2526580678399718 -3.6598896690604112 Q 0.28591695084743407 -3.65955965674672 0.3118353734458121 -3.6592451318350023 Q 0.3279441769399282 -3.6586265033449905 0.3331350696341039 -3.6558222662675695 Q 0.3383259623282795 -3.6530180291901484 0.3371171471179279 -3.6496751336668627 Q 0.33590833190757624 -3.6463322381435765 0.33102928649268254 -3.6429970863212775 Q 0.3261502410777888 -3.639661934498979 0.3226398063633812 -3.6384350988523773 M 0.5559703819196302 -3.2941581160008733 Q 0.5532890080722548 -3.290542066566166 0.5477813193977445 -3.2865822494957357 Q 0.542918424351047 -3.282869572741189 0.5347321478373039 -3.2776982109212978 Q 0.5265458713235609 -3.2725268491014066 0.5134994857712629 -3.2660473152122154 Q 0.5252395680190803 -3.2576055403581607 0.5379979403766791 -3.250848220063517 Q 0.550756312734278 -3.244090899768874 0.5619054870304877 -3.2391202333697664 Q 0.584203835622907 -3.229178900571552 0.5990471018599883 -3.2246997287960704 Q 0.6138903680970698 -3.2202205570205886 0.6169638232400886 -3.2199195310285 Q 0.591629189132 -3.219453110478157 0.5740265065413785 -3.2171433643479306 Q 0.556423823950757 -3.214833618217704 0.5391463241821843 -3.215051946930666 Q 0.5218688244136117 -3.2152702756436287 0.5014723418502428 -3.219284895633587 Q 0.481075859286874 -3.223299515623545 0.44970765826144243 -3.235680653969536 Q 0.45188917946076457 -3.235777281289376 0.45868645539090014 -3.2402313789915747 L 0.44703185643035215 -3.236873613905322 Q 0.44039066551254613 -3.238765253145125 0.43370116093482036 -3.2417476529845897 Q 0.42701165635709454 -3.244730052824054 0.4203221517793687 -3.2477124526635186 L 0.4750701524509564 -3.2601921213723424 Q 0.481625860081493 -3.2701000220728464 0.48947394097579744 -3.282906708090365 Q 0.4973220218701018 -3.2957133941078838 0.5052212024324686 -3.3098338242109877 Q 0.5131203829948354 -3.3239542543140916 0.5211189768851843 -3.3382976679031193 Q 0.5291175707755332 -3.3526410814921475 0.5363719577100874 -3.3665143712793673 Q 0.5533149651106868 -3.3985217939163266 0.5706073121632951 -3.4325119110966438 Q 0.6179707979264312 -3.532752280426406 0.6627281663402141 -3.630144964107216 Q 0.707485534753997 -3.727537647788026 0.7516250523780696 -3.826542315538368 L 0.8367173576708488 -3.884300644687193 Q 0.8203058005293672 -3.840294855453962 0.8164352042758453 -3.7944401686245626 Q 0.8125646080223232 -3.748585481795163 0.8182609308417242 -3.7014059068476084 Q 0.8239572536611253 -3.6542263319000536 0.8370900740221895 -3.606938985600089 Q 0.8502228943832536 -3.559651639300124 0.86761934381498 -3.5123345641539148 Q 0.8850157932467062 -3.465017489007705 0.9043466235618706 -3.4184418348091477 Q 0.9236774538770348 -3.3718661806105903 0.941522656288752 -3.326754783493663 Q 0.9593678587004693 -3.2816433863767354 0.9740671354792878 -3.238469156151388 Q 0.9887664122581065 -3.1952949259260413 0.9964537876452929 -3.154979525382217 Q 1.0462886765672699 -3.2487719584338524 1.089353232397214 -3.3399694181687045 Q 1.1324177882271578 -3.431166877903557 1.1731772526998374 -3.5225901071324763 Q 1.1914693050485523 -3.563619068542528 1.1996778696274357 -3.58802646784439 Q 1.2078864342063191 -3.6124338671462515 1.2103856974465854 -3.630030977720588 Q 1.204636440472476 -3.631524963648463 1.198615886352523 -3.6342091235039806 Q 1.1925953322325697 -3.6368932833594987 1.1863517946266924 -3.639676856542999 Q 1.1707429506119988 -3.646635789501749 1.1559507840429797 -3.6524287053628157 Q 1.1411586174739607 -3.6582216212238827 1.1298050445055017 -3.657937311280649 Q 1.1514753155189636 -3.6621758662780284 1.1714583459648715 -3.665028206699943 Q 1.1914413764107794 -3.667880547121857 1.2103550170788437 -3.6677346888987747 Q 1.2292686577469079 -3.667588830675692 1.2473358921230526 -3.664345360479631 Q 1.2654031264991974 -3.66110189028357 1.2841337393168297 -3.6527511707330698 Q 1.2943909796693427 -3.648178157645891 1.306802798383075 -3.641842647493136 Q 1.3192146170968078 -3.6355071373403813 1.3333833608598313 -3.6265171961783533 Q 1.317962199468532 -3.6243040773679667 1.3045748322886528 -3.6230553629911566 Q 1.2911874651087736 -3.621806648614346 1.2787431315406534 -3.6214740250111928 Q 1.2170102408718837 -3.485405784937515 1.1513444759707854 -3.356704357923763 Q 1.0856787110696873 -3.2280029309100113 1.020781309954344 -3.0992262473982373 Q 0.9745382793589403 -3.067451083514953 0.9501940752792077 -3.044624070671558 Q 0.925849871199475 -3.0217970578281634 0.9212824301285815 -3.0163488268461434 L 0.9204871235047243 -3.0145649589587498 Q 0.9206506150199847 -3.0700915502053396 0.9086652269429291 -3.1235499636213016 Q 0.8966798388658734 -3.177008377037264 0.8775292503929986 -3.229384387877993 Q 0.8583786619201237 -3.281760398718722 0.8355339815063771 -3.333644914935825 Q 0.8126893010926306 -3.3855294311529285 0.7918784148903042 -3.438378351803608 Q 0.7710675286879779 -3.491227272454288 0.7554391483381129 -3.5455079353322096 Q 0.7398107679882479 -3.5997885982101314 0.7353157631290602 -3.6568574890445156 Q 0.7175718770883185 -3.6182571891496704 0.6996050075616526 -3.5797563025828074 Q 0.6816381380349866 -3.541255416015944 0.6642435916462537 -3.5046378106644562 Q 0.6468490452575206 -3.468020205312969 0.6304003184886894 -3.4347231954203843 Q 0.6139515917198581 -3.4014261855278 0.5998646279926383 -3.3740261595972267 Q 0.5857776642654187 -3.3466261336666534 0.5744501168917391 -3.3260150256417877 Q 0.5631225695180596 -3.3054039176169225 0.5559703819196302 -3.2941581160008733 M 0.44970765826144243 -3.235680653969536 Q 0.4484180710058171 -3.235186373337768 0.44663420311842356 -3.2359816799616254 L 0.44703185643035215 -3.236873613905322 L 0.44970765826144243 -3.235680653969536 M 1.997637657775928 -2.980614021872018 Q 1.9917893517607455 -2.982410973087751 1.9794022559193178 -2.986013198070755 Q 1.9687372083297765 -2.989249374769382 1.9498071613863348 -2.994311631614126 Q 1.9308771144428931 -2.9993738884588703 1.900936778004379 -3.0076764832780105 Q 1.9144220186989387 -3.0092404030506654 1.9172297279766495 -3.0130047738053536 Q 1.92003743725436 -3.0167691445600417 1.918357001760166 -3.0205876118997304 Q 1.916343808187749 -3.025445966231781 1.9094972279378961 -3.0303625784246018 Q 1.9053876152776767 -3.0331744489780816 1.8932584465422844 -3.043852052386589 Q 1.881129277806892 -3.054529655795096 1.863546980271079 -3.0711429520099403 Q 1.845964682735266 -3.0877562482247844 1.8237777966976678 -3.1090864873871835 Q 1.8015909106600696 -3.1304167265495826 1.7773658633954388 -3.1545338686108457 Q 1.7176512095992311 -3.098971016165816 1.670506747778298 -3.054996582581151 Q 1.6233622859573646 -3.011022148996486 1.5868704598903234 -2.9771054327140267 Q 1.550378633823282 -2.9431887164315675 1.523661774281112 -2.9181317739713784 Q 1.4969449147389422 -2.893074831511189 1.478085465500261 -2.8753469613151106 Q 1.4337362291297309 -2.8341011727685403 1.4169648764273135 -2.8177293025399712 Q 1.4036958780894384 -2.8054587224200827 1.3880476378947686 -2.7963244483803584 Q 1.3744874942363625 -2.7885461743081437 1.35662639122401 -2.7820282628524033 Q 1.3387652882116572 -2.775510351396663 1.318400177061091 -2.7761011085725795 Q 1.3241819026639656 -2.768780286868349 1.329805571779267 -2.762669892471362 Q 1.3354292408945687 -2.756559498074375 1.3412276116005204 -2.7506196439922688 Q 1.3572584011993278 -2.7341976944711517 1.3716212391312494 -2.7226299380063166 Q 1.385984077063171 -2.7110621815414815 1.3969402699732432 -2.703333698795181 Q 1.4078964628833153 -2.6956052160488806 1.4152713091808877 -2.691545466706234 Q 1.4226461554784604 -2.6874857173635878 1.4247092843601086 -2.68677026589791 Q 1.3940534964559168 -2.6930097318354016 1.373031191700442 -2.696370746807106 Q 1.3520088869449676 -2.69973176177881 1.3366934768201792 -2.7038872204641495 Q 1.3213780666953912 -2.708042679149489 1.309373664241418 -2.7147479200065034 Q 1.2973692617874448 -2.7214531608635184 1.2850903591160177 -2.7340316753903315 Q 1.268718488887448 -2.750803028092749 1.2586899005156271 -2.7638723571853583 Q 1.2486613121438062 -2.7769416862779677 1.2370645707319028 -2.7888213944421802 Q 1.231266200025951 -2.7947612485242863 1.224773184233168 -2.8003641832523996 Q 1.2182801684403848 -2.8059671179805132 1.209029378679122 -2.811948584820312 Q 1.2269653126636628 -2.8103512308581866 1.244938698130127 -2.811861054045841 Q 1.262912083596591 -2.813370877233496 1.2826949041060955 -2.8217647321529267 Q 1.3024777246156003 -2.830158587072357 1.3254634316175775 -2.84645555433708 Q 1.348449138619555 -2.862752521601803 1.3767507963048842 -2.8903800526125143 L 1.7118284471719298 -3.2174763765541416 Q 1.681455626020047 -3.2471922920677496 1.6522765870723308 -3.275685296446806 Q 1.6230975481246144 -3.3041783008258623 1.599721041158619 -3.3270766930283435 Q 1.5763445341926234 -3.3499750852308248 1.560126559175858 -3.365190768720468 Q 1.5439085841590925 -3.38040645221011 1.5394662134206496 -3.3842582097559526 Q 1.5288677462434164 -3.393018256943077 1.5265217945927758 -3.398916498267491 Q 1.5241758429421353 -3.4048147395919046 1.528185656975551 -3.4080466830231035 Q 1.5321954710089667 -3.411278626454303 1.5420411072302571 -3.411677892953176 Q 1.5518867434515478 -3.412077159452049 1.5656714520181767 -3.4098392569880924 L 1.6469904132442879 -3.395738003496368 Q 1.6355849465344532 -3.3948395998801595 1.6343162613664401 -3.389848156715151 Q 1.6330475761984273 -3.384856713550142 1.6353935278490679 -3.378958472225728 Q 1.6384216407592322 -3.372361424538714 1.6459170920624548 -3.363984070739044 Q 1.6513743821386444 -3.358393619838238 1.6684367361782764 -3.341613944584282 Q 1.685499090217908 -3.3248342693303266 1.71006937938807 -3.300712965993294 Q 1.734639668558232 -3.2765916626562612 1.7644967074897027 -3.247054610009073 Q 1.7943537464211734 -3.2175175573618846 1.8255834304232303 -3.187273375800557 Q 1.8568131144252873 -3.1570291942392297 1.8868448549474084 -3.127662681906923 Q 1.9168765954695293 -3.098296169574615 1.9414468846396913 -3.0741748662375827 Q 1.966017173809853 -3.05005356290055 1.983254229440135 -3.0334444279614754 Q 2.000491285070417 -3.0168352930224005 2.006297978327907 -3.0115859227513564 Q 2.0172208810318253 -3.001095504760807 2.0198995907606894 -2.994157376444031 Q 2.022578300489553 -2.9872192481272544 2.0195958896211925 -2.9832843370576856 Q 2.0166134787528316 -2.9793494259881164 2.010220261586852 -2.978908546731551 Q 2.0038270444208726 -2.9784676674749853 1.997637657775928 -2.980614021872018 M 1.4247092843601086 -2.68677026589791 L 1.4250586875414089 -2.6871113465276717 Q 1.425749171352471 -2.687103023976133 1.426090251982233 -2.686753620794833 L 1.4247092843601086 -2.68677026589791 M 1.6898938050517454 -2.2720686324869828 Q 1.66157961409584 -2.286299783026848 1.6420959509146602 -2.2948800270743335 Q 1.6226122877334805 -2.303460271121819 1.608729817651319 -2.3115745778361068 Q 1.5948473475691574 -2.3196888845503945 1.5850554592331194 -2.329005920508849 Q 1.5752635708970815 -2.338322956467304 1.5665742983143145 -2.3536032385490584 Q 1.5549886015372918 -2.373976947991398 1.548479875440429 -2.389373800244474 Q 1.5419711493435662 -2.40477065249755 1.5337646141265084 -2.4192020300192074 Q 1.5296613465179796 -2.426417718780036 1.5248007161479502 -2.433483580656607 Q 1.5199400857779208 -2.4405494425331784 1.5127490820377296 -2.4482560969999287 Q 1.5296942598788295 -2.442164281547075 1.547130403425851 -2.439160202225884 Q 1.5645665469728727 -2.4361561229046926 1.5859516737219728 -2.4390487762809285 Q 1.607336800471073 -2.4419414296571644 1.6339151247195676 -2.4520000584008677 Q 1.6604934489680623 -2.462058687144571 1.6948740836520106 -2.4816095504557967 L 2.1235708865012435 -2.7253919201389833 Q 2.1148151004926037 -2.7378258347719306 2.1020726170467556 -2.755294891679802 Q 2.0893301336009076 -2.7727639485876736 2.072417869120658 -2.794602326807566 Q 2.1041276783169534 -2.782302125730538 2.124389618462251 -2.7693899312540746 Q 2.144651558607549 -2.7564777367776108 2.1568029628565792 -2.7459747716075005 Q 2.1705856627999314 -2.7335909137200014 2.1781928904799583 -2.722188987244346 Q 2.186216342099822 -2.707091788759785 2.1973234156812422 -2.6895353042234227 Q 2.208430489262662 -2.6719788196870606 2.2194501352155904 -2.656057745015126 Q 2.2304697811685195 -2.640136670343192 2.2407694352429908 -2.627457272857284 Q 2.251069089317462 -2.614777875371376 2.2574777019234284 -2.6094348509877237 Q 2.2329753531477494 -2.621901678981521 2.2147983035196526 -2.632629212801974 Q 2.1966212538915553 -2.6433567466224273 2.1824723867538154 -2.6544089625841196 Q 2.104439680650719 -2.6128434923876735 2.042898214213757 -2.5798133537196306 Q 1.9813567477767955 -2.5467832150515877 1.9338513491242724 -2.521173106296272 Q 1.8863459504717495 -2.495562997540956 1.8518154889035434 -2.4767694969912304 Q 1.8172850273353376 -2.457975996441505 1.7928498786897045 -2.4446424337988395 Q 1.7356736193946574 -2.4138137558193185 1.7151168263551235 -2.4015622380793924 Q 1.6991707233104651 -2.3930560490938193 1.6817181230830185 -2.3881868470314913 Q 1.6662047006586216 -2.3838586674205327 1.647274745791217 -2.3820813156599727 Q 1.6283447909238122 -2.380303963899413 1.6087946143167593 -2.3860378404980906 Q 1.6125317147309 -2.377490509811455 1.6168763510222837 -2.369850368770578 Q 1.6212209873136672 -2.3622102277297006 1.625324254922196 -2.354994538968872 Q 1.6376340577477826 -2.333347472686386 1.6490781559807604 -2.3176677666973062 Q 1.660522254213738 -2.3019880607082266 1.6695859223311056 -2.2919760612440383 Q 1.6802808861427954 -2.2800831690624612 1.6898938050517454 -2.2720686324869828 M 2.4094401157610843 -2.172251351625235 Q 2.3945647152329412 -2.1856848085486575 2.377270790774192 -2.2017911954296587 Q 2.359976866315443 -2.2178975823106604 2.345823038837936 -2.2345260616740923 Q 2.272225266807073 -2.18421176824169 2.2072337138477156 -2.139789118892932 Q 2.142242160888358 -2.0953664695441736 2.082002097807009 -2.0551315725607093 Q 2.021762034725659 -2.0148966755772455 1.9644388963712907 -1.9791519216064357 Q 1.9071157580169222 -1.943407167635626 1.8498030309201243 -1.9106822484709525 Q 1.8915649653137023 -1.898340359884503 1.9390092532134242 -1.8853867491649527 Q 1.9864535411131463 -1.8724331384454027 2.0359179930553393 -1.8614858100915628 Q 2.0853824449975322 -1.8505384817377228 2.1359807115552574 -1.842133409908785 Q 2.1865789781129825 -1.833728338079847 2.234765661578482 -1.8300094194125787 Q 2.2829523450439817 -1.8262905007453103 2.3274872503033786 -1.828209421382989 Q 2.372022155562776 -1.8301283420206675 2.409950784526273 -1.839471682493933 Q 2.4151659710087543 -1.8407563918090069 2.420027311804297 -1.842456813108167 Q 2.4248886525998405 -1.8441572344073265 2.428922039846402 -1.8461565759346563 Q 2.4282351709876684 -1.8530276695151 2.426483294648931 -1.8601392874457559 Q 2.424731418310194 -1.8672509053764115 2.4228627502155407 -1.874836631169111 Q 2.4195925810498977 -1.888111651306335 2.4156696459691473 -1.9009744298786635 Q 2.411746710888397 -1.9138372084509918 2.407638176916202 -1.9243913140102498 Q 2.432923127894165 -1.9074876061047032 2.4476163999500544 -1.8927520877702555 Q 2.4623096720059436 -1.878016569435808 2.470561444142236 -1.8669744743377454 Q 2.479754491164235 -1.8541527395474238 2.483388917274386 -1.8434818422322499 Q 2.4856079606367865 -1.8344737928534194 2.489231975489367 -1.8207830607321094 Q 2.4928559903419476 -1.8070923286107996 2.4971258302712553 -1.7918006148502945 Q 2.501395670200563 -1.7765089010897896 2.5060193558168087 -1.760801475345199 Q 2.510643041433054 -1.7450940496006082 2.5146243723917623 -1.7319942170972578 Q 2.5186057033504707 -1.7188943845939075 2.5217110961398106 -1.7093503610558851 Q 2.5248164889291504 -1.6998063375178627 2.526465455188733 -1.697195273857432 Q 2.516901210383845 -1.7053996626216128 2.506217032640186 -1.7150882412690729 Q 2.495532854896527 -1.724776819916533 2.4852059932589965 -1.7350562981819524 Q 2.4748791316214653 -1.745335776447372 2.465442089830064 -1.756085892155645 Q 2.4560050480386626 -1.7668360078639183 2.44893507513829 -1.777163470749725 Q 2.401661903204975 -1.7710498569083717 2.345539118679029 -1.7743224310671182 Q 2.289416334153082 -1.7775950052258647 2.231534732450018 -1.7859659741111762 Q 2.173653130746954 -1.7943369429964877 2.118152479611679 -1.8063117054675144 Q 2.062651828476404 -1.818286467938541 2.016980239430561 -1.8301681303397075 Q 1.9713086503847173 -1.842049792740874 1.9391901791891266 -1.8519899082443927 Q 1.907071707993536 -1.8619300237479115 1.8964285740318838 -1.866348490454123 Q 1.8825904176302222 -1.8714885302109707 1.8672131458865133 -1.8767523025621147 Q 1.854082680858727 -1.8810609183507907 1.837341481406845 -1.8857372615031656 Q 1.820600281954963 -1.8904136046555402 1.803319637924699 -1.8931969867789302 L 1.7247299887360812 -1.9407200288939408 Q 1.7517888410644753 -1.9574432750015958 1.7705987904274914 -1.968865776643566 Q 1.7894087397905076 -1.9802882782855364 1.8035325359918544 -1.9892991968352813 Q 1.8176563321932013 -1.9983101153850262 1.829643172596161 -2.0057888594311044 Q 1.8416300129991208 -2.013267603477183 1.855042647407402 -2.022103334393054 Q 1.8684552818156832 -2.0309390653089254 1.8850733499215448 -2.0420730579802964 Q 1.9016914180274065 -2.0532070506516673 1.9258472273055802 -2.069466600154849 Q 1.9500030365837542 -2.085726149658031 1.9828853271085396 -2.1084098469848587 Q 2.0157676176333252 -2.1310935443116867 2.062062542566392 -2.1626129725543857 Q 2.1083574674994585 -2.1941324007970846 2.169253766915106 -2.2357861509474892 Q 2.2301500663307534 -2.2774399010978943 2.310275497512693 -2.3318766101792527 L 2.305720619031977 -2.3503668167989575 Q 2.302450449866334 -2.3636418369361816 2.2984691189076254 -2.376741669439532 Q 2.294487787948917 -2.389841501942882 2.290379253976722 -2.40039560750214 Q 2.3157809967106013 -2.38301779173455 2.3304742687664906 -2.3682822734001023 Q 2.3451675408223793 -2.3535467550656546 2.3534193129586716 -2.342504659967592 Q 2.3626123599806705 -2.3296829251772704 2.366246786090822 -2.3190120278620965 Q 2.368465829453222 -2.310003978483266 2.372089844305803 -2.296313246361956 Q 2.3757138591583833 -2.282622514240646 2.379983699087691 -2.267330800480141 Q 2.3842535390169988 -2.2520390867196363 2.3888772246332444 -2.2363316609750457 Q 2.3935009102494895 -2.220624235230455 2.397540637086156 -2.2072873487960827 Q 2.4015803639228226 -2.1939504623617103 2.4046273608342044 -2.18464349275471 Q 2.407674357745586 -2.1753365231477093 2.4094401157610843 -2.172251351625235 M 2.16099584343429 -1.1031445496377459 Q 2.1594422352024027 -1.107695692750708 2.154876006750663 -1.1169285593384324 Q 2.1507090620537115 -1.1251452244802467 2.142509524356303 -1.1403409480469375 Q 2.1343099866588946 -1.1555366716136282 2.1198638032507535 -1.1803607741881375 Q 2.1268106488924468 -1.175817173744564 2.131071325218787 -1.1796028267456657 Q 2.135332001545127 -1.1833884797467675 2.137400388554825 -1.190066621995472 Q 2.140085693255645 -1.1981602494448753 2.1406004720334555 -1.209389534806542 Q 2.140708424387089 -1.2270282590239248 2.1417011332102995 -1.260030135902209 Q 2.14269384203351 -1.2930320127804935 2.1449346069632083 -1.3345012661346418 Q 2.067120634271729 -1.3414655520973024 2.018330786249427 -1.3468126688762423 Q 1.9695409382271247 -1.352159785655182 1.9423495745723736 -1.355083623071435 Q 1.9103383644116716 -1.358929065689676 1.8953489607772307 -1.361251070753585 Q 1.885709267765329 -1.363094281157561 1.876904126380882 -1.3687846634088443 Q 1.8689846060805455 -1.373415317426951 1.8605059156005983 -1.3827532296481475 Q 1.8520272251206513 -1.392091141869344 1.8460814955860905 -1.4078205008873177 L 1.8263638609543076 -1.1875096907045668 Q 1.8249710037617755 -1.1719468961662711 1.8254799690992636 -1.1557236571495868 Q 1.8257202310437632 -1.1419756315667782 1.8277317351564832 -1.126108149517616 Q 1.8297432392692035 -1.1102406674684535 1.8352896850489755 -1.0955275098963901 Q 1.814608169934185 -1.121890135364009 1.804582549277206 -1.1468088341824403 Q 1.7945569286202274 -1.1717275330008716 1.79099181627562 -1.192146158162996 Q 1.7867587167832355 -1.216056198204906 1.787657693977057 -1.2370557569402743 Q 1.7919233191291868 -1.2847168152138053 1.7952238122920616 -1.327071689652064 Q 1.7985243054549367 -1.3694265640903225 1.8001121685756356 -1.4036007575046445 Q 1.8017000316963343 -1.4377749509189666 1.8016660896840846 -1.4620445192630929 Q 1.8016321476718349 -1.486314087607219 1.7996717130157702 -1.4972746695758972 Q 1.813398839819479 -1.4808488819616576 1.8272272409219652 -1.4710321750805282 Q 1.8410556420244517 -1.4612154681993987 1.8586583821239566 -1.4552279411066378 Q 1.8762611222234615 -1.4492404140138768 1.8987669910687561 -1.446000575082674 Q 1.9212728599140507 -1.4427607361514716 1.952441975777909 -1.440461359095729 L 2.1518402807998247 -1.4226153763164109 Q 2.153102557630557 -1.4367191588667416 2.154785881609711 -1.450049908635823 Q 2.156469205588865 -1.4633806584049043 2.158573576716441 -1.4759383753927364 L 2.181506857888451 -1.4199602422931465 Q 2.2077690736718254 -1.4176097957807485 2.236727908160103 -1.415263120603045 Q 2.2656867426483798 -1.4129164454253416 2.2987576810422583 -1.4099566238912107 Q 2.3318286194361373 -1.4069968023570798 2.3700278631815275 -1.4038231182213103 Q 2.408227106926918 -1.4006494340855409 2.45345647855384 -1.3966014428697444 Q 2.4554151839808385 -1.418486622689223 2.4576425928008256 -1.437896589074826 Q 2.4598700016208124 -1.4573065554604292 2.462322587046521 -1.4737549710828355 L 2.502374000217781 -1.3789870758895943 Q 2.4941039106371217 -1.2865829833184628 2.489465401073064 -1.2210617955565213 Q 2.484826891509007 -1.15554060779458 2.482455546217509 -1.1126123424524665 Q 2.4799611632336 -1.062831827712582 2.478946691016756 -1.0295867821696367 Q 2.4774667802496904 -1.0130513129726975 2.474313130278488 -1.0079409996801245 Q 2.4711594803072856 -1.002830686387552 2.4680853412412276 -1.0040862851634285 Q 2.465011202175169 -1.005341883939305 2.4620421087425832 -1.0105099447433887 Q 2.4590730153099973 -1.0156780055474728 2.457962217620165 -1.0196992845438466 Q 2.4563650826010113 -1.0237640903274872 2.4510002866396943 -1.0350293598070317 Q 2.446477584975221 -1.0447485637240779 2.436550331896859 -1.0625500810864437 Q 2.4266230788184964 -1.08035159844881 2.409781192881624 -1.1112729096987797 Q 2.4196100783813703 -1.100588573792479 2.4248472007010484 -1.1015905545141447 Q 2.4300843230207265 -1.1025925352358101 2.4329948043272682 -1.1077246119220163 Q 2.4359923392083433 -1.1138293632668659 2.4369934553154757 -1.1250151218412658 Q 2.436847789614898 -1.1343425846729125 2.4377723015370476 -1.1528886933680387 Q 2.4386968134591966 -1.1714348020631649 2.439922241557518 -1.1960818907684463 Q 2.441147669655839 -1.2207289794737277 2.442743075445927 -1.249509935478244 Q 2.4443384812360147 -1.2782908914827602 2.4465508047172237 -1.3084873326879751 Q 2.368693305238478 -1.314965281321314 2.306906701020983 -1.320250014639515 Q 2.245120096803488 -1.3255347479577162 2.193568339895383 -1.3301485874079788 Q 2.1896149449235085 -1.2804986530298943 2.1872833550845825 -1.2407533437220053 Q 2.1849517652456565 -1.2010080344141165 2.1838862235721574 -1.1726698889516554 Q 2.1828717513553135 -1.13942484340871 2.1820238436181474 -1.1135183845928578 Q 2.1810737969676706 -1.0974257259379736 2.178163315661129 -1.0922936492517674 Q 2.175252834354587 -1.0871615725655612 2.171935526623868 -1.0884389347350711 Q 2.1686182188931493 -1.089716296904581 2.165384193402269 -1.0946629524376374 Q 2.162150167911389 -1.0996096079706938 2.16099584343429 -1.1031445496377459" fill="url(#gradient-6d614252-2ba6-447d-993e-7f6989264e4b)" fill-rule="nonzero"></path></g><g transform="matrix(1,0,0,1,0,0)"><g clip-path="url(#SvgjsClipPath53547)"><g clip-path="url(#SvgjsClipPath5354563da0e88-025a-4f42-8876-71eba2dc4ce1)"><path d=" M 0.3538358185052246 -2.7109802560062555 C 0.052959326442940435 -2.5540012166694117 0.038611779836884796 -2.1284276651339082 -0.635300923982846 -2.3183216643317035 C -0.43253633150608917 -2.497665996907399 -0.12659599946519684 -2.647682256273657 0.08439733297679775 -2.723428862620333 C -0.5063839978607872 -2.6746894028262327 -1.1558214751172469 -2.1834969249012692 -1.1345111485406054 -1.7486396667383182 L -0.5458397510274403 -2.0100604056339497 C -0.5345339928340153 -2.014959807038477 -0.5213880144048473 -2.009889215358655 -0.5163006844855612 -1.9986667656820818 L -0.5163006844855612 -1.9986667656820818 C -0.5113906536037371 -1.9874773683614486 -0.5163699551428139 -1.9744184454570775 -0.5274833311049868 -1.9693386924726446 L -1.1275483685700194 -1.7028541135984052 L -1.1296583018944395 -1.7028541135984052 C -1.1175581867153102 -1.6317521487590234 -1.0877336308737586 -1.5648464541461027 -1.0429400422607795 -1.5083182610868864 L -0.43401328483318313 -1.7781787332801975 C -0.42864261360468736 -1.7805960533741731 -0.42253044645451565 -1.7807753625728342 -0.4170273024081059 -1.7786770414616133 C -0.4115241583616964 -1.7765787203503922 -0.40708303037929394 -1.7723754928637714 -0.40468521162374593 -1.7669960866607717 L -0.40468521162374593 -1.7669960866607717 C -0.3997582699003138 -1.7557470987298038 -0.40472665339807756 -1.7426230668489184 -0.4158678582431715 -1.7374570201188926 L -1.0127679957215743 -1.4722384012393053 C -0.956717552360324 -1.4130990003560175 -0.8916227178430108 -1.363245188362452 -0.8199200898695922 -1.3245430685299093 L -0.49288042458449965 -1.4697064812500011 C -0.4874531387971637 -1.4721187516383076 -0.48128923704194493 -1.4722732378445063 -0.4757479235249408 -1.4701358740593762 C -0.4702066100079365 -1.467998510274246 -0.4657429972238565 -1.4637448398886037 -0.46334135804262033 -1.4583128412981332 L -0.46334135804262033 -1.4583128412981332 C -0.45846871472825357 -1.4469499752484791 -0.4636420266816126 -1.4337815448217468 -0.47494599132693005 -1.4287737747562543 L -0.7703366567457226 -1.2981689019746594 C -0.7033781706891415 -1.2655894266269656 -0.6341286508641353 -1.237946033784397 -0.5631412042876845 -1.215459515657398 C -0.587616430850955 -1.1732608491689986 -0.6108256974195745 -1.1310621826805995 -0.6308700640015641 -1.0888635161922007 L -0.6414197306236638 -1.0715620629319573 C -2.1074014044306426 -1.6121269806483478 -0.6673719105140291 -3.010590788073888 0.3538358185052246 -2.7109802560062555 Z M -0.3743021717520987 -0.8652105838036865 L -0.18440817255430342 -0.9496079167804845 C -0.24348630563806206 -0.96184553006212 -0.30383039871647255 -0.9740831433437556 -0.36438548512732494 -0.9888526766146952 C -0.3458180718724294 -1.03906908973589 -0.32366377196602003 -1.0923097406220865 -0.2979225854080967 -1.1485746292732852 C 0.13862261941439025 -1.0601684229800894 0.4789548646433275 -1.0186027364890164 0.48275274462728346 -0.5073658919820634 C 0.4716996930584392 -0.5445235339040675 0.45699929492077973 -0.5804971043467058 0.4388661314793483 -0.6147614981950396 L -0.2131032657664147 -0.3250676527521801 C -0.2243488258860995 -0.3200173652112661 -0.23756053781222275 -0.32501894186901303 -0.24264233230829402 -0.33625029937160633 L -0.24264233230829402 -0.33625029937160633 C -0.24756927403172613 -0.3474992873025742 -0.2426008905339625 -0.3606233191834596 -0.2314596856888682 -0.36578936591348565 L 0.41671183157293923 -0.6533732780319239 C 0.3747024994043131 -0.7186618779329366 0.31779094728976176 -0.7730424207412498 0.2506600789410893 -0.812040264028304 L -0.37620111174407656 -0.5339510518697548 C -0.3815541521773811 -0.5312258507524903 -0.3878149841790065 -0.5309114424089247 -0.39341411451479125 -0.5330866441221072 C -0.39901324485057577 -0.53526184583529 -0.4034198217689128 -0.5397204274283371 -0.40552918495351375 -0.5453446918216232 L -0.40552918495351375 -0.5453446918216232 C -0.41057947249442783 -0.5565902519413073 -0.40557789583668125 -0.5698019638674308 -0.39434653833408817 -0.5748837583635025 L 0.20065465915233682 -0.8390474105808794 C 0.10121973821613506 -0.8825505761701922 -0.0029368976606971575 -0.9143427784194766 -0.10971653286983774 -0.9337834168473349 L -0.3561567451620872 -0.8242778773099395 C -0.36746250335551234 -0.8193784759054121 -0.3806084817846803 -0.8244490675852341 -0.3856958117039664 -0.8356715172618074 L -0.3856958117039664 -0.8356715172618074 C -0.3881080820922731 -0.8410988030491429 -0.3882625682984716 -0.8472627048043617 -0.38612520451334154 -0.8528040183213659 C -0.38398784072821135 -0.8583453318383698 -0.37973417034256896 -0.8628089446224498 -0.3743021717520989 -0.8652105838036863 Z" fill="#1a702d" transform="matrix(1,0,0,1,0,0)" fill-rule="evenodd"></path></g><g clip-path="url(#SvgjsClipPath5354563da0e88-025a-4f42-8876-71eba2dc4ce1)"><path d=" M -0.5893043775104911 -1.0677641829480016 C -0.5049070445336933 -1.2498514288454428 -0.34898297185905924 -1.4351035747295142 -0.32049887197939 -1.639134127200923 L -0.8102143965772595 -1.4216000014532264 C -0.8156343380775425 -1.4191284900567138 -0.8218212166343731 -1.4189437435448802 -0.8273789732428358 -1.4210874496652872 C -0.8329367298512984 -1.4232311557856943 -0.8373970476068162 -1.427522678018005 -0.8397534631191388 -1.4329936414050939 L -0.8397534631191388 -1.4329936414050939 C -0.8446804048425707 -1.444242629336062 -0.839712021344807 -1.4573666612169474 -0.828570816499713 -1.4625327079469732 L -0.3164899986629921 -1.6899835203194435 C -0.3147215476191939 -1.7631971829332316 -0.331180193255564 -1.8357022297894856 -0.3643854851273257 -1.9009768527614397 L -0.9933566091369108 -1.6216216806082373 C -1.004662367330336 -1.61672227920371 -1.017808345759504 -1.621792870883532 -1.0228956756787901 -1.633015320560105 L -1.0228956756787901 -1.633015320560105 C -1.0279459632197043 -1.6442608806797898 -1.0229443865619576 -1.6574725926059128 -1.0117130290593646 -1.6625543871019843 L -0.3856958117039664 -1.9406435992605333 C -0.4249436148794806 -2.0031811477506363 -0.4726589125962495 -2.0599850736039325 -0.5274833311049862 -2.109438265214129 L -0.5298042577618487 -2.108383298551919 L -1.0028513090968008 -1.8973899661099245 C -1.0141551321908104 -1.8925331133260919 -1.0272592255857873 -1.897718186252162 -1.032179382306238 -1.908994599394234 L -1.032179382306238 -1.908994599394234 C -1.0345967024002136 -1.9143652706227297 -1.0347760115988747 -1.9204774377729015 -1.0326776904876538 -1.925980581819311 C -1.030579369376433 -1.9314837258657207 -1.0263761418898119 -1.935924853848123 -1.0209967356868122 -1.9383226726036713 L -0.5639851776174519 -2.141509251745312 C -0.5964781508135191 -2.1693603716276555 -0.6327690039935421 -2.1978444715073246 -0.6734907171548472 -2.22590658472211 C -0.06983879303830043 -1.9419095592551852 -0.10908355287251159 -1.6211996939433533 -0.2827310654722729 -1.2842433420334878 C -0.41185898492677364 -1.0335832630923985 -0.47262506467006815 -0.8322956239427353 -0.484229697954378 -0.6755275779383334 L -0.047473499799448815 -0.8696414437849687 C -0.04207656648050362 -0.8720457069667786 -0.03594285595193902 -0.8721946334056188 -0.030435599870004104 -0.8700551238486081 C -0.024928343788069185 -0.8679156142915971 -0.020503833399022175 -0.863664932963901 -0.018145426590011837 -0.8582478038331012 L -0.018145426590011837 -0.8582478038331012 C -0.013095139049097648 -0.8470022437134159 -0.018096715706844346 -0.8337905317872927 -0.029328073209437422 -0.8287087372912212 L -0.4852846646165878 -0.6257331514820228 C -0.48711035486356447 -0.5527295933523253 -0.47133366315153413 -0.48035944788429497 -0.4392881181442333 -0.4147398190400291 L 0.2506600789410893 -0.7206801510809204 C 0.2619658371345146 -0.7255795524854478 0.2751118155636827 -0.7205089608056259 0.28019914548296887 -0.7092865111290525 L 0.28019914548296865 -0.7092865111290525 C 0.28524943302388306 -0.6980409510093675 0.2802478563661366 -0.6848292390832444 0.26901649886354306 -0.6797474445871732 L -0.41692282490538146 -0.37507307254093325 C -0.3643546865549733 -0.3037593921014867 -0.2866866988097092 -0.2550472366806704 -0.1995996924901271 -0.23877137978340457 L -0.197489759165707 -0.24003733977805686 L 0.19390287251419314 -0.41389584571026017 C 0.2052086307076184 -0.418795247114788 0.2183546091367865 -0.41372465543496606 0.22344193905607268 -0.4025022057583927 L 0.22344193905607246 -0.4025022057583927 C 0.22617721929719825 -0.3971765428088161 0.22652120211683924 -0.3909395919007972 0.22438817642805753 -0.38534543018871004 C 0.22225515073927582 -0.3797512684766229 0.2178459741013794 -0.37532667333298875 0.21225929243664687 -0.3731741325489555 L -0.11583533951065483 -0.22737773983153708 C 0.09895587291529573 -0.21387416655524927 0.37366919175477276 -0.3092431528190307 0.6152565574008566 -0.48500059874321266 C 1.712421886099229 -1.2836103620361619 -0.1757574459241813 -1.2201013689711215 0.09937785958017975 -1.7834535665912472 C 0.1907379725275633 -1.517812961046776 1.0515907688909016 -1.19984600905669 1.0910465220575545 -1.9558351191963568 C 2.0844031311944646 -0.08263631377632841 -1.5096572936224717 0.44463602399621616 -0.5893043775104911 -1.0677641829480016 Z" fill="#4caf7a" transform="matrix(1,0,0,1,0,0)" fill-rule="evenodd"></path></g><g clip-path="url(#SvgjsClipPath5354563da0e88-025a-4f42-8876-71eba2dc4ce1)"><path d=" M 0.8557889563847301 -1.8815654661767747 C 0.8557889563847301 -1.759210635247261 0.7566007882501493 -1.6600224671126804 0.6342459573206358 -1.6600224671126804 C 0.5118911263911223 -1.6600224671126804 0.41270295825654135 -1.759210635247261 0.41270295825654135 -1.8815654661767747 C 0.41270295825654135 -2.0039202971062884 0.5118911263911223 -2.103108465240869 0.6342459573206358 -2.103108465240869 C 0.7566007882501493 -2.103108465240869 0.8557889563847301 -2.0039202971062884 0.8557889563847301 -1.8815654661767747 Z" fill="#1a702d" transform="matrix(1,0,0,1,0,0)" fill-rule="nonzero"></path></g></g></g></g><defs><linearGradient id="gradient-6d614252-2ba6-447d-993e-7f6989264e4b" y1="0" x1="0" y2="1" x2="0"><stop stop-color="#a4c868" offset="0"></stop><stop stop-color="#1c3423" offset="1"></stop></linearGradient><clipPath id="SvgjsClipPath53547"><path d=" M -1.265959994651968 -2.7531789224946546 h 2.531919989303936 v 2.5656789224946546 h -2.531919989303936 Z"></path></clipPath><clipPath id="SvgjsClipPath5354563da0e88-025a-4f42-8876-71eba2dc4ce1"><path d=" M -1.265959994651968 -2.7531789224946546 L 1.265959994651968 -2.7531789224946546 L 1.265959994651968 -0.1875 L -1.265959994651968 -0.1875 Z"></path></clipPath></defs></svg>